<?xml version="1.0" encoding="UTF-8" standalone="no"?>
<!-- Created with Inkscape (http://www.inkscape.org/) -->

<svg
   width="210mm"
   height="165mm"
   viewBox="0 0 210 165"
   version="1.1"
   id="svg1"
   inkscape:version="1.4.4 (dcaf3e7d9e, 2026-05-05)"
   sodipodi:docname="tvcri-logo.svg"
   xmlns:inkscape="http://www.inkscape.org/namespaces/inkscape"
   xmlns:sodipodi="http://sodipodi.sourceforge.net/DTD/sodipodi-0.dtd"
   xmlns="http://www.w3.org/2000/svg"
   xmlns:svg="http://www.w3.org/2000/svg">
  <sodipodi:namedview
     id="namedview1"
     pagecolor="#ffffff"
     bordercolor="#000000"
     borderopacity="0.25"
     inkscape:showpageshadow="2"
     inkscape:pageopacity="0.0"
     inkscape:pagecheckerboard="0"
     inkscape:deskcolor="#d1d1d1"
     inkscape:document-units="mm"
     inkscape:zoom="1.0244809"
     inkscape:cx="396.78631"
     inkscape:cy="561.25984"
     inkscape:window-width="3432"
     inkscape:window-height="1364"
     inkscape:window-x="0"
     inkscape:window-y="0"
     inkscape:window-maximized="1"
     inkscape:current-layer="layer1" />
  <defs
     id="defs1" />
  <g
     inkscape:label="Layer 1"
     inkscape:groupmode="layer"
     id="layer1">
    <path
       fill="#892047"
       opacity="1"
       stroke="none"
       d="m 168.62415,79.459098 c 1.34584,0.761382 2.68283,1.538862 4.03889,2.281614 11.11407,6.087517 22.23102,12.169838 33.35012,18.248157 0.59845,0.327131 1.22658,0.599621 1.83578,0.907651 0.16937,0.0856 0.32035,0.20755 0.69435,0.45455 -38.94941,0 -77.63563,0 -116.531794,0 0.442846,-0.27724 0.743742,-0.4874 1.063703,-0.66273 7.545491,-4.134915 15.093021,-8.266102 22.640351,-12.397674 0.18945,-0.103703 0.37311,-0.223519 0.57279,-0.30193 0.50649,-0.198887 0.65964,-0.550667 0.65312,-1.091957 -0.0278,-2.306695 -0.0117,-4.613911 -0.0117,-6.920942 0,-0.354633 0,-0.709259 0,-1.133349 2.98035,0 5.87637,0 8.84984,0 0,1.247973 0,2.461906 0,3.639834 0.10974,0.05061 0.14148,0.06861 0.17549,0.07996 0.0325,0.01083 0.0751,0.03108 0.0998,0.01921 0.32284,-0.155165 0.64941,-0.304122 0.96342,-0.475868 4.4851,-2.452958 8.96842,-4.909165 13.5771,-7.431513 1.93475,-1.079431 3.74459,-2.091927 5.55442,-3.104429 1.25823,-0.669863 2.51646,-1.339724 3.89871,-2.053916 4.09356,2.116624 8.06043,4.282496 12.0337,6.436576 2.17507,1.179204 4.36096,2.338484 6.54197,3.506752 z"
       id="path2"
       style="stroke-width:0.108193" />
    <path
       fill="#f3b33f"
       opacity="1"
       stroke="none"
       d="m 146.10985,71.508232 c -1.76991,1.073956 -3.57975,2.086452 -5.46111,3.109025 -1.33538,-0.742897 -2.58672,-1.517843 -3.86519,-2.24509 -6.102,-3.471099 -12.21804,-6.917561 -18.3092,-10.407501 -0.72195,-0.413643 -1.24385,-0.385188 -1.96494,0.02628 -10.13108,5.780884 -20.282692,11.525826 -30.430032,17.27819 -0.124801,0.07075 -0.259264,0.124431 -0.540231,0.173701 -6.630258,-3.249358 -13.109651,-6.486037 -19.587839,-9.725133 -0.159674,-0.07983 -0.306023,-0.186327 -0.458586,-0.280382 4.011888,-4.986408 8.8026,-9.044745 14.368181,-12.215619 2.908301,-1.656941 5.92619,-3.061294 9.094176,-4.101387 2.83275,-0.930027 5.741353,-1.5977 8.699573,-2.05447 3.547608,-0.547772 7.111118,-0.577099 10.673788,-0.40548 3.81838,0.183939 7.54694,0.958584 11.22014,2.017411 5.21993,1.504688 10.02382,3.881915 14.4755,6.958227 4.11052,2.840555 7.71196,6.247786 10.80284,10.182887 0.42168,0.536859 0.82901,1.084984 1.28293,1.689344 z"
       id="path3"
       style="stroke-width:0.108193" />
    <path
       fill="#37659f"
       opacity="1"
       stroke="none"
       d="m 65.430027,69.459111 c 0.215258,0.07226 0.361607,0.178759 0.521281,0.25859 6.478188,3.239096 12.957581,6.475775 19.51021,9.750544 -0.128025,0.186762 -0.316498,0.358515 -0.532744,0.481382 -4.69826,2.669351 -9.39941,5.333584 -14.101177,7.996754 -0.151135,0.08562 -0.314442,0.149789 -0.610372,0.28902 0,-3.174658 0,-6.244762 0,-9.381502 -3.016463,0 -5.914794,0 -8.911869,0 0,4.857927 0,9.673399 0,14.480512 -0.700259,0.402528 -1.321947,0.763633 -1.947109,1.118628 -3.821797,2.170259 -7.646011,4.336264 -11.464876,6.511671 -0.542354,0.30895 -1.087044,0.47786 -1.732116,0.47714 -14.455704,-0.0159 -28.91144,-0.0122 -43.3671662,-0.0122 -0.2724181,0 -0.5448362,1e-5 -0.8172543,1e-5 -0.022041,-0.0747 -0.044045,-0.14931 -0.066069,-0.22397 4.7738613,-2.391017 9.5477185,-4.782035 14.4372305,-7.230976 0,-4.990416 0,-10.018122 0,-15.114222 2.994947,0 5.863496,0 8.858661,0 0.159741,1.109648 0.05388,2.252341 0.07177,3.386165 0.01877,1.189327 0.0042,2.379176 0.0042,3.5688 0,1.148596 -7e-6,2.297186 -7e-6,3.658722 3.037824,-1.437285 5.86382,-2.905939 8.715364,-4.319887 2.871691,-1.423939 5.731689,-2.871467 8.727931,-4.377523 4.880933,-2.438694 9.630965,-4.808103 14.379431,-7.180636 0.125541,-0.06272 0.234223,-0.159199 0.350764,-0.239934 1.578345,-0.765159 3.158604,-1.526382 4.734347,-2.296856 1.062261,-0.519398 2.118136,-1.05186 3.239571,-1.600269 z"
       id="path4"
       style="stroke-width:0.108193" />
    <path
       fill="#8a2248"
       opacity="1"
       stroke="none"
       d="m 182.53073,160.99836 c -1.22629,1.30276 -2.72573,1.88636 -4.37592,2.05324 -1.72336,0.17428 -3.46621,0.21984 -5.16466,-0.20041 -3.35126,-0.82919 -5.29729,-3.06143 -6.05891,-6.35271 -0.25022,-1.08128 -0.34696,-2.20598 -0.42721,-3.31709 -0.1817,-2.51556 -0.29489,-5.036 -0.46434,-7.55254 -0.1095,-1.62634 -0.44235,-3.21253 -1.0837,-4.71723 -1.09807,-2.57619 -2.97911,-4.12988 -5.84399,-4.25338 -1.6175,-0.0697 -3.24048,-0.0126 -4.86099,-0.0123 -0.22518,0.75249 -0.3222,22.29162 -0.10028,24.46849 1.81066,0 3.63508,0 5.54602,0 0.0287,0.38153 0.051,0.67739 0.0784,1.0419 -6.87912,0 -13.67647,0 -20.49359,0 -0.0403,-0.10752 -0.10248,-0.20189 -0.10641,-0.2986 -0.008,-0.20444 0.0139,-0.41014 0.0275,-0.70064 1.88579,0 3.71081,0 5.59319,0 0,-15.56993 0,-31.05077 0,-46.62575 -1.8856,0 -3.71117,0 -5.58336,0 0,-0.37043 0,-0.64692 0,-0.94212 0.10514,-0.0427 0.19747,-0.10881 0.2931,-0.11396 0.32367,-0.0175 0.64852,-0.0135 0.97291,-0.0174 5.91194,-0.0708 11.82375,-0.15621 17.73585,-0.20627 3.19254,-0.027 6.32972,0.32704 9.30026,1.61183 1.95792,0.84682 3.61717,2.07929 4.89279,3.80194 3.60716,4.87118 2.1797,11.78407 -3.05628,14.81105 -1.80276,1.0422 -3.77211,1.58977 -5.80449,1.94792 -0.45871,0.0808 -0.91888,0.1534 -1.40307,0.3757 0.25096,0.0851 0.49693,0.19156 0.75371,0.25184 1.57633,0.37003 3.16402,0.69563 4.72945,1.10641 0.83049,0.21793 1.64919,0.52257 2.42933,0.88302 3.12366,1.44313 4.72525,4.04353 5.24261,7.32132 0.34179,2.1655 0.44731,4.36833 0.65835,6.55446 0.2179,2.25722 0.43134,4.51485 0.65834,6.77115 0.0286,0.2838 0.11541,0.56418 0.1966,0.83985 0.61926,2.10285 2.83386,2.72972 4.48066,1.25395 0.50596,-0.45341 0.95516,-0.97015 1.56485,-1.59598 0.23866,0.27738 0.41709,0.48477 0.65052,0.75609 -0.34997,0.38012 -0.63591,0.69067 -0.97732,1.05622 m -28.45962,-33.26137 c 0,2.57885 0,5.1577 0,7.69022 1.49002,0 2.82405,0.0764 4.14648,-0.0149 3.42039,-0.23624 5.61675,-2.35632 6.10765,-5.75965 0.34667,-2.40331 0.29925,-4.81539 0.13188,-7.22167 -0.1072,-1.54136 -0.37969,-3.06861 -1.0221,-4.50343 -0.71886,-1.60553 -1.8928,-2.70196 -3.5833,-3.19767 -1.86584,-0.54712 -3.75808,-0.44056 -5.78064,-0.19139 0,4.36146 0,8.67176 3e-5,13.19849 z"
       id="path5"
       style="stroke-width:1.32291667;stroke:#892148;stroke-opacity:1;stroke-dasharray:none" />
    <path
       fill="#37669f"
       opacity="1"
       stroke="none"
       d="m 24.755328,146.67083 c 6e-6,4.85965 6e-6,9.61112 6e-6,14.48378 1.944554,0 3.798256,0 5.707553,0 0,0.39206 0,0.66297 0,1.00707 -6.81689,0 -13.616255,0 -20.5276242,0 -0.027479,-0.25484 -0.059248,-0.54957 -0.1049001,-0.97302 1.9495113,0 3.8048083,0 5.7213973,0 0,-15.56695 0,-31.01462 0,-46.56652 -2.546047,-0.0987 -5.050663,-0.18036 -7.4251154,0.88984 -2.0724246,0.93409 -3.4870407,2.55577 -4.4134928,4.56812 -0.7351719,1.59687 -1.2899898,3.27709 -1.915379,4.92391 -0.125755,0.33114 -0.2087207,0.67852 -0.3209487,1.04997 -0.2843626,0 -0.52454557,0 -0.84728938,0 0,-4.13794 0,-8.25964 0,-12.38001 0.79625218,-0.21147 37.98222028,-0.25252 39.13388128,-0.0337 0,4.11745 0,8.24614 0,12.4181 -0.298153,0 -0.541132,0 -0.857524,0 -0.170531,-0.53585 -0.316167,-1.08735 -0.520085,-1.61636 -0.581922,-1.50968 -1.092731,-3.05673 -1.802926,-4.50501 -1.650404,-3.36559 -4.407808,-5.14352 -8.162116,-5.30888 -1.178417,-0.0519 -2.361049,-0.008 -3.665443,-0.008 0,10.69158 0,21.31713 6e-6,32.05086 z"
       id="path6"
       style="stroke-width:1.32291667;stroke:#38669f;stroke-opacity:1;stroke-dasharray:none" />
    <path
       fill="#f3b440"
       opacity="1"
       stroke="none"
       d="m 85.026019,6.9637693 c 2.043316,4.3625247 4.048636,8.6524547 6.059689,12.9397057 1.829505,3.900258 3.661283,7.799466 5.499508,11.695616 1.33253,2.824315 2.680131,5.641513 4.015474,8.464507 0.87454,1.848844 1.74061,3.701704 2.60389,5.555821 0.0424,0.09105 0.0217,0.211448 0.0411,0.448965 -0.36955,0.06269 -0.74042,0.170835 -1.11427,0.182293 -6.480293,0.198613 -12.648629,1.762969 -18.614613,4.224197 -0.323173,0.133317 -0.653963,0.248186 -1.121596,0.424614 -0.04899,-0.41702 -0.112305,-0.715971 -0.115205,-1.015511 C 82.195416,41.161406 82.126816,32.438669 82.033781,23.716192 81.974601,18.167359 81.884387,12.61884 81.80017,7.0703011 81.7723,5.2328539 81.71547,3.3958607 81.682856,1.5584627 c -0.0053,-0.3000038 0.04639,-0.60102171 0.07174,-0.90157346 0.07318,-0.0109999 0.146364,-0.0219999 0.219524,-0.0330407 1.005483,2.08871586 2.010956,4.17742766 3.051906,6.33990446 z"
       id="path7"
       style="stroke-width:0.108193" />
    <path
       fill="#f3b440"
       opacity="1"
       stroke="none"
       d="m 120.53074,15.909244 c 2.4176,-5.153508 4.7923,-10.2376194 7.25826,-15.51709334 0.31144,1.93006734 -0.12022,49.19271634 -0.42334,50.31542134 -2.22951,-0.766856 -4.4432,-1.578431 -6.68941,-2.286908 -2.2931,-0.723269 -4.63591,-1.27251 -7.02605,-1.575366 -2.34237,-0.296799 -4.6894,-0.55665 -7.13186,-0.844194 0.43625,-0.999632 0.81785,-1.924079 1.23914,-2.830062 1.30097,-2.79762 2.61988,-5.586896 3.92676,-8.381781 2.03603,-4.354248 4.06632,-8.711194 6.10229,-13.065475 0.89634,-1.916965 1.80063,-3.83021 2.74421,-5.814542 z"
       id="path8"
       style="stroke-width:0.108193" />
    <path
       fill="#f3b440"
       opacity="1"
       stroke="none"
       d="M 61.068716,62.5096 C 59.497867,59.314154 57.952863,56.195726 56.405397,53.078519 54.572511,49.38638 52.743638,45.692231 50.901955,42.004483 48.143417,36.480851 45.369385,30.964948 42.614893,25.439307 c -0.779084,-1.562872 -1.513074,-3.148228 -2.257379,-4.701651 0.08937,-0.07845 0.110999,-0.110278 0.139765,-0.119279 0.03238,-0.01012 0.07893,-0.01239 0.105882,0.004 0.122649,0.07457 0.248163,0.147589 0.359124,0.237797 12.79404,10.401477 25.586946,20.804353 38.376986,31.210756 0.04608,0.0375 0.04983,0.127037 0.11197,0.29939 -6.307777,3.362922 -11.859917,7.722504 -16.584518,13.301993 -0.904797,-0.918858 -1.148919,-2.118968 -1.798007,-3.162719 z"
       id="path9"
       style="stroke-width:0.108193" />
    <path
       fill="#f3b440"
       opacity="1"
       stroke="none"
       d="m 163.83242,31.948497 c -0.7141,1.416524 -1.42017,2.748079 -2.08868,4.098233 -1.97536,3.989552 -3.94066,7.984113 -5.90081,11.981162 -1.73887,3.545886 -3.45995,7.100489 -5.19978,10.645892 -1.04477,2.128953 -2.10751,4.249122 -3.17214,6.368235 -0.0881,0.175399 -0.25261,0.31243 -0.42603,0.520595 -2.3943,-2.739468 -4.9054,-5.244046 -7.71384,-7.444819 -2.79487,-2.190155 -5.73569,-4.153364 -8.88852,-5.795998 0.49719,-0.803733 37.89425,-31.426153 38.93598,-31.851774 -1.73093,3.962993 -3.73807,7.629718 -5.54618,11.478474 z"
       id="path10"
       style="stroke-width:0.108193" />
    <path
       fill="#3867a0"
       opacity="1"
       stroke="none"
       d="m 53.941754,113.50464 c 4.140519,-10e-6 8.172846,-10e-6 12.278155,-10e-6 0,0.37181 0,0.66623 0,1.08145 -1.935434,0 -3.82801,0 -5.861864,0 4.264561,12.22983 8.476148,24.30774 12.687731,36.38565 0.07987,0.005 0.159737,0.0105 0.239594,0.0157 4.296745,-12.08673 8.593501,-24.17348 12.936498,-36.39031 -1.888827,0 -3.640239,0 -5.493449,0 -0.02837,-0.38093 -0.05017,-0.67351 -0.07695,-1.03299 4.016946,0 7.933489,0 11.953854,0 0.02218,0.28488 0.04521,0.58062 0.07607,0.97677 -1.80857,0 -3.528194,0 -5.36497,0 -5.868566,16.51919 -11.721109,32.99324 -17.583443,49.49489 -0.375993,0.0193 -0.693292,0.0476 -1.010635,0.0481 -0.282576,0 -0.565196,-0.0299 -0.916507,-0.0507 -5.724622,-16.4666 -11.44418,-32.9186 -17.186151,-49.43509 -1.724779,0 -3.409369,0 -5.194651,0 -0.03144,-0.36898 -0.05624,-0.66014 -0.09316,-1.09339 2.900305,0 5.700989,0 8.609871,-3e-5 z"
       id="path11"
       style="stroke-width:1.32291667;stroke:#38669f;stroke-opacity:1;stroke-dasharray:none" />
    <path
       fill="#38669f"
       opacity="1"
       stroke="none"
       d="m 128.99746,124.21557 c -0.75827,-2.12195 -1.62906,-4.09326 -2.91966,-5.85643 -2.34902,-3.20908 -5.43923,-4.99256 -9.48407,-4.85951 -1.29028,0.0425 -2.59998,0.12264 -3.85808,0.388 -3.05398,0.64415 -5.19779,2.5373 -6.64742,5.24357 -1.26022,2.35267 -1.85276,4.91489 -2.14925,7.53953 -0.65713,5.8169 -0.63131,11.65759 -0.3823,17.49237 0.13656,3.20008 0.47443,6.39966 1.45267,9.47778 0.35812,1.12686 0.79412,2.24464 1.33386,3.295 1.2721,2.47545 3.29038,4.03984 6.01907,4.69134 2.0239,0.48322 4.06864,0.62651 6.11488,0.31586 2.67529,-0.40617 4.82262,-1.84025 6.65114,-3.76267 2.60405,-2.7378 4.08526,-6.06707 4.97818,-9.69165 0.0595,-0.24159 0.13133,-0.48013 0.21595,-0.78745 0.31913,-0.0208 0.62487,-0.0408 1.01029,-0.0659 0,4.8819 0,9.68872 0,14.5467 -0.34014,0 -0.65022,0 -0.94678,0 -0.96225,-1.41384 -1.41519,-1.63945 -3.08632,-1.23643 -1.57276,0.37929 -3.11972,0.86778 -4.67318,1.32471 -10.4742,3.08076 -19.67564,-2.11812 -24.603433,-9.01336 -3.638215,-5.09078 -5.213823,-10.77122 -4.881919,-17.00218 0.569887,-10.69884 8.285282,-20.4862 18.402972,-23.18904 3.50338,-0.93589 6.97921,-0.87651 10.44294,0.17489 1.34333,0.40776 2.67861,0.8428 4.02712,1.23233 0.61797,0.1785 1.25346,0.32096 1.89089,0.40189 1.00036,0.12702 1.79871,-0.15205 2.03412,-1.31605 0.33764,0 0.64918,0 1.01636,0 0,4.63371 0,9.23541 0,13.86428 -0.55956,0.30078 -0.85683,0.0881 -1.03551,-0.4667 -0.28689,-0.89076 -0.59658,-1.77416 -0.92252,-2.74089 z"
       id="path12"
       style="stroke-width:1.32291667;stroke:#38669f;stroke-opacity:1;stroke-dasharray:none" />
    <path
       fill="#882047"
       opacity="1"
       stroke="none"
       d="m 203.71691,156.84092 c 2e-5,1.46997 2e-5,2.83178 2e-5,4.301 1.9479,0 3.80362,0 5.71298,0 0,0.38083 0,0.65287 0,1.00108 -6.82729,0 -13.65465,0 -20.554,0 -0.0223,-0.28528 -0.0436,-0.55735 -0.0738,-0.94345 1.91019,0 3.76741,0 5.69666,0 0,-15.58702 0,-31.06417 0,-46.67439 -1.8647,0 -3.7201,0 -5.62605,0 0,-0.39862 0,-0.66426 0,-0.99006 6.85695,0 13.65663,0 20.5325,0 0.0253,0.26981 0.0504,0.53617 0.0886,0.94337 -1.9208,0 -3.77425,0 -5.77698,0 0,14.17433 0,28.2143 0,42.36245 z"
       id="path13"
       style="stroke-width:1.32291667;stroke:#892148;stroke-opacity:1;stroke-dasharray:none" />
    <path
       fill="#f3b43f"
       opacity="1"
       stroke="none"
       d="m 57.466211,73.282262 c -0.126643,0.154709 -0.235326,0.251187 -0.360867,0.313908 -4.748466,2.372532 -9.498497,4.741942 -14.325506,7.132126 C 40.00263,78.658321 37.2983,76.573553 34.603506,74.476515 28.797045,69.958045 22.997485,65.430707 17.19053,60.912865 15.746091,59.789085 14.281525,58.691204 12.832376,57.57342 12.475863,57.298428 12.143555,56.992054 11.84861,56.586005 c 16.31194,3.684562 32.539302,7.63917 48.976018,11.473342 -1.175387,1.807476 -2.261856,3.478212 -3.358417,5.222915 z"
       id="path14"
       style="stroke-width:0.108193" />
    <path
       fill="#f3b33f"
       opacity="1"
       stroke="none"
       d="m 168.69149,79.419761 c -2.24836,-1.128931 -4.43424,-2.288211 -6.60932,-3.467415 -3.97326,-2.15408 -7.94014,-4.319952 -11.98436,-6.490937 -0.36689,-0.45197 -0.65914,-0.893902 -1.01951,-1.438917 0.54893,-0.184272 1.00313,-0.379198 1.47706,-0.488923 3.00506,-0.695729 6.02089,-1.34572 9.02072,-2.06295 3.31679,-0.793012 6.61568,-1.660705 9.93065,-2.461529 3.83941,-0.927508 7.68815,-1.816219 11.53221,-2.724498 2.40839,-0.569065 4.81915,-1.128772 7.22231,-1.719299 2.08951,-0.513468 4.16657,-1.077508 6.25556,-1.59313 1.07094,-0.264328 2.15597,-0.471601 3.47537,-0.756679 -0.239,0.359565 -0.30831,0.549076 -0.44332,0.654608 -4.95415,3.87279 -9.91971,7.730953 -14.87201,11.606087 -3.79132,2.966678 -7.56551,5.955233 -11.3506,8.929882 -0.84879,0.667055 -1.71124,1.31671 -2.63476,2.0137 z"
       id="path15"
       style="stroke-width:0.108193" />
  </g>
</svg>
